PathFileType	4	(X/Y/Z)	ptf.trc
DataRate	CameraRate	NumFrames	NumMarkers	Units	OrigDataRate	OrigDataStartFrame	OrigNumFrames
60.00	60.00	9	39	m	60.00	76	151
Frame#	Time	Sternum				R.Acromium				L.Acromium				Top.Head				R.ASIS				L.ASIS				V.Sacral				R.Thigh.Upper				R.Thigh.Front				R.Thigh.Rear				R.Knee.Lat				R.Knee.Med				R.Shank.Upper				R.Shank.Front				R.Shank.Rear				R.Ankle.Lat				R.Ankle.Med				R.Heel				R.Midfoot.Sup				R.Midfoot.Lat				R.Toe.Lat				R.Toe.Med				R.Toe.Tip				L.Thigh.Upper				L.Thigh.Front				L.Thigh.Rear				L.Knee.Lat				L.Knee.Med				L.Shank.Upper				L.Shank.Front				L.Shank.Rear				L.Ankle.Lat				L.Ankle.Med				L.Heel				L.Midfoot.Sup				L.Midfoot.Lat				L.Toe.Lat				L.Toe.Med				L.Toe.Tip				
		X1	Y1	Z1		X2	Y2	Z2		X3	Y3	Z3		X4	Y4	Z4		X5	Y5	Z5		X6	Y6	Z6		X7	Y7	Z7		X8	Y8	Z8		X9	Y9	Z9		X10	Y10	Z10		X11	Y11	Z11		X12	Y12	Z12		X13	Y13	Z13		X14	Y14	Z14		X15	Y15	Z15		X16	Y16	Z16		X17	Y17	Z17		X18	Y18	Z18		X19	Y19	Z19		X20	Y20	Z20		X21	Y21	Z21		X22	Y22	Z22		X23	Y23	Z23		X24	Y24	Z24		X25	Y25	Z25		X26	Y26	Z26		X27	Y27	Z27		X28	Y28	Z28		X29	Y29	Z29		X30	Y30	Z30		X31	Y31	Z31		X32	Y32	Z32		X33	Y33	Z33		X34	Y34	Z34		X35	Y35	Z35		X36	Y36	Z36		X37	Y37	Z37		X38	Y38	Z38		X39	Y39	Z39		
76	1.25	0.649289	1.36373	0.0313656		0.552435	1.50816	0.197748		0.562101	1.51826	-0.142835		0.705032	1.74945	0.0389521		0.588868	1.06111	0.17405		0.615877	1.03493	-0.0854503		0.40432	1.03889	0.0367832		0.484892	0.719812	0.216025		0.531935	0.64536	0.124391		0.441613	0.607001	0.201331		0.381468	0.536436	0.17625		0.38717	0.521881	0.0548082		0.323414	0.465289	0.180531		0.381852	0.40205	0.131525		0.301429	0.381276	0.1877		0.187205	0.121135	0.151368		0.208915	0.131071	0.0638134		0.120351	0.109474	0.09334		0.266284	0.0976128	0.0709979		0.247752	0.0737218	0.175966		0.330755	0.034179	0.190943		0.345397	0.0520608	0.0841705		0.4023	0.040391	0.120882		0.621956	0.753609	-0.138603		0.721106	0.751734	-0.0773372		0.659736	0.651271	-0.122578		0.691172	0.52285	-0.10378		0.710034	0.531107	0.010637		0.717193	0.447208	-0.118992		0.78406	0.418835	-0.0717062		0.714617	0.400231	-0.126743		0.845079	0.114062	-0.0958427		0.85498	0.14264	-0.00645229		0.783475	0.074096	-0.0388654		0.942355	0.142028	-0.0154144		0.930922	0.117112	-0.111919		0.998814	0.116077	-0.118349		1.00879	0.141163	-0.0183624		1.05604	0.15449	-0.0438869		
77	1.26667	0.650306	1.36356	0.0283206		0.552584	1.50853	0.193722		0.562585	1.51662	-0.146905		0.704217	1.74958	0.0336382		0.591055	1.05912	0.172401		0.618124	1.03411	-0.0872077		0.406519	1.03802	0.034944		0.485691	0.718597	0.214438		0.531929	0.643618	0.122824		0.441644	0.606027	0.200186		0.380962	0.535784	0.1755		0.386133	0.520888	0.0540755		0.321449	0.466339	0.180144		0.377235	0.400886	0.130956		0.296322	0.383227	0.18749		0.172153	0.127578	0.151901		0.193853	0.13661	0.0642458		0.104706	0.118109	0.0941385		0.250064	0.101233	0.0712795		0.231121	0.0781694	0.176359		0.312781	0.0358406	0.191103		0.327624	0.053028	0.084244		0.384233	0.0394848	0.120767		0.626224	0.753496	-0.139719		0.724717	0.752314	-0.0773855		0.664528	0.651423	-0.123257		0.696636	0.523224	-0.104083		0.714205	0.531635	0.0105292		0.720682	0.446885	-0.118932		0.785876	0.416054	-0.0708552		0.716405	0.40003	-0.126662		0.835496	0.109141	-0.0939676		0.845462	0.137455	-0.00450048		0.771222	0.0725163	-0.0378109		0.933022	0.132293	-0.0122128		0.921698	0.107752	-0.108826		0.989532	0.103231	-0.114284		0.999359	0.128024	-0.01421		1.04758	0.138854	-0.0390804		
78	1.28333	0.651582	1.36292	0.024976		0.553312	1.50912	0.188967		0.564464	1.51468	-0.151675		0.705501	1.74896	0.027613		0.591679	1.05833	0.170994		0.619617	1.03276	-0.0884689		0.407577	1.03764	0.0328918		0.486884	0.718172	0.213495		0.533123	0.643107	0.121952		0.443114	0.605449	0.199603		0.38257	0.534983	0.175216		0.387511	0.519819	0.0538148		0.321914	0.467336	0.180123		0.374689	0.399544	0.130781		0.293264	0.38538	0.187563		0.158125	0.135296	0.152404		0.179927	0.14338	0.064682		0.090163	0.128692	0.0948446		0.234603	0.105648	0.0715599		0.21501	0.0834304	0.176702		0.294841	0.0376718	0.191217		0.310083	0.0541928	0.0843095		0.366174	0.0382626	0.120668		0.629013	0.753219	-0.140375		0.727073	0.752679	-0.0773543		0.667849	0.651396	-0.123615		0.700638	0.523409	-0.10418		0.717351	0.53196	0.0105497		0.722662	0.44649	-0.118801		0.786253	0.413221	-0.0702057		0.716642	0.399826	-0.126528		0.824187	0.1046	-0.0927101		0.834557	0.132602	-0.00319082		0.757405	0.0718532	-0.0372549		0.922064	0.122301	-0.00986217		0.910473	0.0982162	-0.106559		0.977994	0.089793	-0.111211		0.988065	0.114224	-0.0110719		1.03712	0.122206	-0.0353928		
79	1.3	0.653213	1.36358	0.0210952		0.553922	1.51094	0.183417		0.566016	1.51332	-0.15723		0.70565	1.74983	0.0202225		0.593764	1.05767	0.169596		0.622659	1.03292	-0.0898417		0.410162	1.03775	0.0307183		0.489317	0.718093	0.212229		0.535546	0.642752	0.120908		0.445665	0.60527	0.198792		0.385178	0.534644	0.174725		0.390006	0.519048	0.0533747		0.323438	0.468882	0.179915		0.373155	0.398802	0.130593		0.291294	0.388249	0.187535		0.145439	0.14417	0.153009		0.167415	0.151171	0.0652371		0.077111	0.141093	0.0956375		0.22011	0.110648	0.0719588		0.199678	0.0894239	0.177147		0.277083	0.0396067	0.191434		0.292872	0.0553662	0.084491		0.348163	0.0365516	0.120695		0.632939	0.753724	-0.141721		0.730685	0.753658	-0.0782108		0.672109	0.65208	-0.124651		0.705325	0.524251	-0.104906		0.72143	0.532999	0.00989556		0.7251	0.446812	-0.119306		0.786959	0.410974	-0.0703041		0.717164	0.40043	-0.127004		0.811992	0.100994	-0.0921689		0.823027	0.128678	-0.00263039		0.743092	0.0722085	-0.0372381		0.910094	0.113347	-0.00850345		0.898002	0.0896957	-0.105246		0.964977	0.077459	-0.109283		0.975542	0.101552	-0.00911269		1.02518	0.106684	-0.033017		
80	1.31667	0.654909	1.36474	0.0177834		0.554141	1.51311	0.17827		0.567997	1.51251	-0.162318		0.705686	1.7512	0.013738		0.596312	1.05766	0.16801		0.625961	1.0343	-0.0914706		0.41313	1.03802	0.0285386		0.49461	0.718334	0.210892		0.541562	0.643049	0.119895		0.45211	0.605008	0.198001		0.392337	0.533656	0.174295		0.397263	0.517549	0.053015		0.329785	0.470062	0.179779		0.375755	0.397419	0.130532		0.293529	0.391211	0.187587		0.135219	0.154929	0.153683		0.157419	0.160628	0.0658737		0.0667512	0.156382	0.0964994		0.207399	0.116709	0.0724089		0.185892	0.0967118	0.177623		0.259919	0.0419316	0.191645		0.276432	0.0567812	0.0846809		0.33047	0.0343485	0.120716		0.636795	0.754575	-0.143481		0.734332	0.75468	-0.0796508		0.675981	0.652987	-0.12612		0.709222	0.525213	-0.106061		0.724944	0.534156	0.00877809		0.726707	0.447361	-0.120261		0.786818	0.409054	-0.0709528		0.716866	0.401338	-0.127913		0.798935	0.0982585	-0.0921997		0.810769	0.125621	-0.00266421		0.728415	0.0731262	-0.0376141		0.897117	0.105829	-0.00798829		0.884401	0.0825768	-0.104747		0.950692	0.0669548	-0.108363		0.961886	0.0907334	-0.00818606		1.01185	0.0932863	-0.0318091		
81	1.33333	0.65642	1.36641	0.014008		0.554587	1.51563	0.173033		0.569111	1.5122	-0.16751		0.705243	1.75308	0.00676904		0.599226	1.0582	0.166201		0.629143	1.03626	-0.0933743		0.416215	1.03861	0.0264977		0.501984	0.719094	0.209878		0.550586	0.644114	0.119497		0.461661	0.604905	0.197627		0.403306	0.532285	0.174241		0.408854	0.51548	0.0530826		0.34023	0.471057	0.179916		0.382072	0.39575	0.13099		0.299508	0.394433	0.187879		0.128015	0.167485	0.154333		0.150685	0.17163	0.0665563		0.0600007	0.174564	0.0971732		0.196999	0.123746	0.0729841		0.173926	0.105278	0.178146		0.243294	0.0446743	0.192029		0.260975	0.0584184	0.0851038		0.313021	0.0316113	0.121083		0.640082	0.755549	-0.145426		0.737467	0.755509	-0.0813635		0.678969	0.65389	-0.127811		0.711838	0.526064	-0.107471		0.727309	0.53515	0.00739141		0.727019	0.447892	-0.121502		0.785364	0.407242	-0.0719486		0.715327	0.402298	-0.129113		0.784821	0.0961756	-0.0926757		0.797493	0.123181	-0.00314662		0.713125	0.0741597	-0.0382915		0.882964	0.099716	-0.00814055		0.869596	0.0768506	-0.104904		0.935175	0.0584186	-0.108266		0.947033	0.081881	-0.00809066		0.997144	0.082265	-0.0315461		
82	1.35	0.657602	1.3685	0.0104412		0.554594	1.51829	0.168165		0.569856	1.51247	-0.172313		0.704259	1.75537	0.000490183		0.60251	1.05936	0.163853		0.631999	1.03926	-0.0959191		0.419333	1.03926	0.02444		0.511406	0.720591	0.2093		0.562863	0.646036	0.120155		0.474354	0.605209	0.197928		0.418233	0.530762	0.17482		0.425329	0.512844	0.0539016		0.354944	0.472052	0.180473		0.392534	0.394023	0.132369		0.309547	0.398109	0.188506		0.124808	0.181847	0.154702		0.14846	0.184044	0.067114		0.0583741	0.195781	0.0971864		0.189791	0.131657	0.0736499		0.164304	0.115233	0.178593		0.227204	0.0479804	0.19267		0.246867	0.0602468	0.0859108		0.295749	0.0282743	0.122107		0.642749	0.75664	-0.147818		0.739975	0.756019	-0.0835178		0.680871	0.654738	-0.129938		0.712785	0.526717	-0.109303		0.728041	0.535888	0.00558133		0.725665	0.448287	-0.123168		0.782228	0.405474	-0.073371		0.712225	0.403171	-0.130743		0.769605	0.0946317	-0.0936093		0.783052	0.121274	-0.00408426		0.697054	0.0751582	-0.0393448		0.867607	0.0949303	-0.00887589		0.85366	0.0724115	-0.105639		0.918577	0.0517435	-0.108843		0.931028	0.0749148	-0.00867278		0.98117	0.073555	-0.0320257		
83	1.36667	0.658846	1.3707	0.00685285		0.554705	1.52094	0.163402		0.57084	1.51312	-0.176996		0.703608	1.75774	-0.00535769		0.605926	1.06032	0.160797		0.634318	1.04227	-0.0992483		0.422212	1.04032	0.022079		0.522237	0.722817	0.209301		0.577901	0.648887	0.122187		0.489782	0.605937	0.199256		0.436905	0.529043	0.176514		0.446598	0.509503	0.0560288		0.373883	0.472876	0.181925		0.407283	0.392158	0.135184		0.323796	0.402013	0.189844		0.126403	0.19744	0.154824		0.151599	0.197262	0.0676408		0.0631671	0.219282	0.0965195		0.18641	0.140159	0.0744528		0.157608	0.126401	0.178921		0.211895	0.0521135	0.193473		0.234449	0.0624402	0.0870809		0.278665	0.0247455	0.123768		0.643806	0.757405	-0.15086		0.740934	0.755824	-0.0864297		0.680725	0.655115	-0.132671		0.711129	0.526787	-0.11167		0.726341	0.536074	0.00321119		0.721816	0.448134	-0.125323		0.776765	0.403501	-0.0753167		0.706825	0.403495	-0.132813		0.753353	0.0932376	-0.0948214		0.767561	0.119618	-0.00533675		0.680264	0.0757534	-0.0405176		0.851274	0.0911656	-0.0100924		0.83674	0.0688512	-0.106816		0.901101	0.0465081	-0.10999		0.914157	0.0695193	-0.00985925		0.964244	0.0668255	-0.0332128		
84	1.38333	0.660084	1.37279	0.0033107		0.555308	1.52329	0.159179		0.571775	1.51419	-0.181171		0.703581	1.75992	-0.0103726		0.608655	1.06089	0.157504		0.636176	1.04529	-0.102793		0.424505	1.04169	0.0192517		0.533469	0.725913	0.210181		0.594526	0.652882	0.12597		0.506818	0.607426	0.202066		0.458168	0.527622	0.179923		0.471497	0.505993	0.0601437		0.396026	0.473804	0.184869		0.425682	0.390609	0.139983		0.341604	0.406166	0.192365		0.133242	0.213255	0.154796		0.160538	0.210385	0.0682944		0.0750982	0.243315	0.0953033		0.187545	0.148992	0.0754224		0.154644	0.138459	0.179052		0.198465	0.0576641	0.194196		0.224775	0.0656184	0.0884647		0.262815	0.0222797	0.125836		0.643329	0.757903	-0.154331		0.74035	0.755011	-0.0897842		0.678631	0.655108	-0.135784		0.70701	0.526388	-0.114351		0.722237	0.535794	0.000518346		0.71564	0.447536	-0.127752		0.769121	0.401392	-0.0775273		0.699298	0.403355	-0.135131		0.736235	0.0919341	-0.0961332		0.751116	0.118141	-0.00670664		0.662819	0.0758932	-0.0417097		0.834114	0.0882898	-0.0115106		0.819067	0.0660597	-0.108175		0.883013	0.042559	-0.111381		0.896598	0.0655186	-0.011309		0.946601	0.0618827	-0.0347151		
